<mxfile host="app.diagrams.net" modified="2023-05-09T01:11:37.495Z" agent="Mozilla/5.0 (Windows NT 10.0; Win64; x64) AppleWebKit/537.36 (KHTML, like Gecko) Chrome/112.0.0.0 Safari/537.36" version="21.2.9" etag="grlcv12UNUPRFn42aB1l" type="github">
  <diagram name="第 1 页" id="b8EiQ7skAieoxixQPAk6">
    <mxGraphModel>
      <root>
        <mxCell id="0" />
        <mxCell id="1" parent="0" />
      </root>
    </mxGraphModel>
  </diagram>
</mxfile>
